PathFileType	4	(X/Y/Z)	s04c0102.trc
DataRate	CameraRate	NumFrames	NumMarkers	Units	OrigDataRate	OrigDataStartFrame	OrigNumFrames
200	200	4	50	mm	200	500	2000
Frame#	Time	racr			lacr			c7			jug			rlel			rdr			llel			ldr			s2			lic			ric			lasi			rasi			rpsi			lpsi			rgt			lgt			rth1			rth2			rth3			rth4			rlfc			rmfc			rsh1			rsh2			rsh3			rsh4			rlmal			rmmal			rcal			rtoe			rmt5			lth1			lth2			lth4			lth3			llfc			lmfc			lsh1			lsh2			lsh3			lsh4			llmal			lmmal			lcal			ltoe			lmt5			SBIKE			LBIKE			RBIKE			
		X1	Y1	Z1	X2	Y2	Z2	X3	Y3	Z3	X4	Y4	Z4	X5	Y5	Z5	X6	Y6	Z6	X7	Y7	Z7	X8	Y8	Z8	X9	Y9	Z9	X10	Y10	Z10	X11	Y11	Z11	X12	Y12	Z12	X13	Y13	Z13	X14	Y14	Z14	X15	Y15	Z15	X16	Y16	Z16	X17	Y17	Z17	X18	Y18	Z18	X19	Y19	Z19	X20	Y20	Z20	X21	Y21	Z21	X22	Y22	Z22	X23	Y23	Z23	X24	Y24	Z24	X25	Y25	Z25	X26	Y26	Z26	X27	Y27	Z27	X28	Y28	Z28	X29	Y29	Z29	X30	Y30	Z30	X31	Y31	Z31	X32	Y32	Z32	X33	Y33	Z33	X34	Y34	Z34	X35	Y35	Z35	X36	Y36	Z36	X37	Y37	Z37	X38	Y38	Z38	X39	Y39	Z39	X40	Y40	Z40	X41	Y41	Z41	X42	Y42	Z42	X43	Y43	Z43	X44	Y44	Z44	X45	Y45	Z45	X46	Y46	Z46	X47	Y47	Z47	X48	Y48	Z48	X49	Y49	Z49	X50	Y50	Z50	
500	2.5000	483.032023	1394.037259	-156.819977	478.725951	1386.939829	-413.174237	457.431243	1445.694831	-286.503190	431.135813	1292.854359	-291.503127	492.387725	1106.669069	-8.280783	695.198609	912.244067	-111.179405	487.307853	1128.688565	-560.583898	687.335352	918.479752	-484.274508	-84.013146	1187.010292	-278.688796	58.151316	1220.061513	-441.591669	74.446803	1199.651407	-122.410458	106.531090	1181.371434	-400.760207	120.299005	1149.531198	-168.023685	-58.108340	1231.357655	-233.030131	-61.889411	1240.380896	-308.942951	30.712902	1132.305388	-111.443453	34.739454	1145.374954	-476.303110	115.724210	992.836927	-88.730760	174.947811	927.040000	-95.482353	195.167890	844.243805	-101.066438	204.649083	944.786092	-109.831155	253.609112	709.600912	-123.837434	230.597557	686.363527	-234.829768	220.298162	586.795810	-95.284491	225.117735	497.163740	-110.656963	183.523203	421.647138	-116.621498	256.631708	494.643895	-134.217995	164.876867	270.823707	-122.827976	184.482227	276.374741	-206.447952	96.943094	265.523050	-155.719421	372.579365	139.178395	-167.252663	305.180145	141.630510	-107.691966	105.004387	1098.629342	-491.252386	190.745924	1092.809650	-502.120975	204.014633	1124.264127	-488.334287	263.571410	1043.918599	-518.077889	400.758144	962.343013	-505.995920	442.489856	943.477539	-397.072626	349.907017	862.842644	-515.116431	318.539966	787.218141	-484.744533	249.118814	733.059072	-471.376796	344.445728	775.493203	-457.605852	158.954229	619.945767	-445.902696	163.808168	626.749761	-357.519703	80.720557	635.964065	-396.865164	340.548367	477.693092	-418.466038	257.688959	483.836295	-475.388211	-185.468656	934.220137	-285.506232	-17.336307	79.816072	-485.222780	-17.364651	79.406035	-84.713891	
501	2.5050	482.463491	1394.600785	-157.350741	478.422609	1386.726372	-413.255190	456.639216	1445.898359	-286.762928	430.645786	1292.937996	-291.511111	493.218257	1107.454612	-8.795021	695.261493	912.059692	-111.609881	485.133648	1128.150247	-560.470495	686.627902	919.403832	-484.770973	-84.662075	1186.656675	-278.640256	57.404043	1219.958870	-441.440215	74.112130	1199.397819	-122.301601	105.569106	1181.662711	-400.196233	119.897166	1149.128453	-167.923151	-58.648433	1231.113876	-232.983575	-62.671754	1240.138151	-308.563705	30.323442	1131.860157	-111.249664	33.830527	1146.169630	-476.021864	115.880009	992.458058	-88.624711	175.366248	926.978137	-95.503787	195.986288	844.255833	-101.052058	204.862538	944.754407	-110.099008	253.933566	709.514626	-123.376509	231.288103	686.445489	-234.502159	218.869568	587.086954	-94.988654	222.378112	497.302868	-110.961887	179.892576	422.448913	-116.634265	253.983994	494.577812	-133.965713	159.233852	272.015660	-123.036834	179.252442	277.220623	-206.675657	91.373915	267.502749	-156.301421	365.227032	137.644352	-166.917436	297.780678	140.887297	-107.584399	104.558364	1099.577290	-490.440332	190.360885	1094.008816	-501.356026	203.523984	1125.589358	-487.590687	263.388824	1045.028533	-516.337450	401.580993	964.625695	-503.841473	443.118600	946.334620	-394.477561	351.533268	865.134093	-513.099635	321.369028	788.720400	-483.694118	252.732064	733.459023	-470.547749	347.624737	776.855837	-456.774024	164.170509	618.539187	-445.656136	168.964924	625.794267	-357.382821	85.750096	633.830520	-396.785452	347.772870	480.145957	-418.844724	264.837779	484.726384	-475.623967	-185.505550	934.241937	-285.538256	-17.351730	79.806586	-485.238234	-17.369210	79.422608	-84.705554	
502	2.5100	481.786418	1395.115256	-157.945830	478.146136	1386.433332	-413.467037	455.929308	1446.003584	-287.091154	430.088538	1292.896899	-291.564259	493.784603	1108.175351	-9.392503	695.279730	911.778329	-112.049975	482.805275	1127.454785	-560.500683	685.965989	920.132811	-485.302691	-85.467801	1186.284192	-278.512549	56.527083	1219.757142	-441.276641	73.662746	1199.097951	-122.231453	104.633337	1181.811494	-399.747658	119.430727	1148.694281	-167.845715	-58.882044	1231.014158	-233.376428	-63.465579	1239.818901	-308.303885	29.878363	1131.405344	-111.126145	33.009501	1146.730676	-475.880365	116.176327	992.132460	-88.529045	175.988960	927.042161	-95.621151	197.000530	844.307246	-101.083214	205.280580	944.855029	-110.269700	254.593671	709.510859	-123.000097	232.173447	686.717794	-234.171877	217.699294	587.673771	-94.710029	219.877948	497.821652	-110.953604	176.340743	423.596678	-116.768007	251.497579	494.545008	-133.913982	153.399292	273.613749	-123.268522	173.891115	278.521891	-206.900864	85.546560	269.545392	-157.032199	357.890228	136.624227	-166.461300	290.197473	140.664446	-107.371903	104.166470	1100.126443	-489.843294	190.025479	1094.496244	-500.493073	203.098584	1126.247838	-486.884841	263.149498	1045.343697	-514.463507	402.247019	966.455230	-501.510514	443.455678	948.718212	-391.674555	353.114557	866.870416	-511.046263	324.028773	789.755114	-482.499551	256.454550	733.121710	-469.739057	350.695993	777.749588	-455.914913	169.165063	616.687973	-445.695007	174.094699	624.439193	-357.258723	90.117659	630.771308	-397.006396	354.941603	482.311771	-418.817988	272.098369	485.253506	-475.931713	-185.535008	934.231999	-285.593718	-17.350681	79.816325	-485.214514	-17.367624	79.415171	-84.692496	
503	2.5150	481.147165	1395.432452	-158.532255	477.891540	1385.977244	-413.788453	455.207541	1445.945653	-287.537331	429.601700	1292.792602	-291.727442	494.164548	1108.744249	-10.073214	695.311071	911.478446	-112.257603	480.520817	1126.612249	-560.604380	685.331787	920.593618	-485.575344	-86.302988	1185.791286	-278.389554	55.624705	1219.466427	-441.112842	73.180611	1198.774599	-122.071108	103.725896	1181.814171	-399.401307	118.908919	1148.221182	-167.785917	-58.964018	1230.285403	-233.197868	-64.283798	1239.520724	-308.272684	29.408227	1130.842420	-110.980545	32.135570	1146.981835	-475.838192	116.532961	991.853677	-88.517718	176.626508	927.048331	-95.967670	198.317622	844.457047	-100.701793	205.853879	945.043467	-110.352410	255.701119	709.627235	-122.593522	233.406593	687.117267	-233.932878	216.781507	588.367286	-94.585551	217.491061	498.553280	-110.866871	172.791154	425.039443	-116.905075	249.145566	494.861973	-133.796005	147.262025	275.555836	-123.659353	168.697967	279.891251	-207.212243	79.510264	271.920181	-158.154984	350.377124	136.044414	-165.670723	282.362732	140.618723	-107.121681	103.848628	1100.059837	-489.455398	189.727577	1094.304788	-499.418420	202.705319	1126.214588	-486.110018	263.308633	1045.331486	-513.188339	402.716720	967.736148	-498.966411	443.414045	950.535641	-388.679355	354.673206	867.856416	-509.003557	326.809125	789.849977	-481.438666	259.985350	732.237146	-469.184322	353.604245	778.108598	-454.991049	174.024388	614.423277	-445.923694	179.739712	622.591269	-356.566561	94.063218	626.913087	-397.682089	362.099853	484.645600	-418.869801	279.362924	485.454178	-476.265522	-185.554183	934.231152	-285.700988	-17.357330	79.767945	-485.241047	-17.367624	79.432471	-84.686951	
